<mxfile host="app.diagrams.net" agent="Mozilla/5.0 (X11; Linux x86_64) AppleWebKit/537.36 (KHTML, like Gecko) Chrome/135.0.0.0 Safari/537.36" version="26.2.14">
  <diagram name="PÃ¡gina-1" id="i_kpYPqVSlS-5kqW37nP">
    <mxGraphModel dx="1360" dy="793" grid="1" gridSize="10" guides="1" tooltips="1" connect="1" arrows="1" fold="1" page="1" pageScale="1" pageWidth="827" pageHeight="1169" math="0" shadow="0">
      <root>
        <mxCell id="0" />
        <mxCell id="1" parent="0" />
        <mxCell id="W_4SSIxg0g2_PnkoGH2I-1" value="Total de la cuenta del usuario con propina" style="rounded=1;whiteSpace=wrap;html=1;" vertex="1" parent="1">
          <mxGeometry x="354" y="40" width="120" height="60" as="geometry" />
        </mxCell>
        <mxCell id="W_4SSIxg0g2_PnkoGH2I-2" value="" style="endArrow=classic;html=1;rounded=0;" edge="1" parent="1">
          <mxGeometry width="50" height="50" relative="1" as="geometry">
            <mxPoint x="414" y="100" as="sourcePoint" />
            <mxPoint x="414" y="160" as="targetPoint" />
          </mxGeometry>
        </mxCell>
        <mxCell id="W_4SSIxg0g2_PnkoGH2I-21" value="" style="edgeStyle=orthogonalEdgeStyle;rounded=0;orthogonalLoop=1;jettySize=auto;html=1;" edge="1" parent="1" source="W_4SSIxg0g2_PnkoGH2I-3" target="W_4SSIxg0g2_PnkoGH2I-6">
          <mxGeometry relative="1" as="geometry" />
        </mxCell>
        <mxCell id="W_4SSIxg0g2_PnkoGH2I-3" value="Solicitar al usuario el total de la cuenta" style="shape=parallelogram;perimeter=parallelogramPerimeter;whiteSpace=wrap;html=1;fixedSize=1;" vertex="1" parent="1">
          <mxGeometry x="310" y="170" width="198" height="60" as="geometry" />
        </mxCell>
        <mxCell id="W_4SSIxg0g2_PnkoGH2I-25" value="" style="edgeStyle=orthogonalEdgeStyle;rounded=0;orthogonalLoop=1;jettySize=auto;html=1;" edge="1" parent="1" source="W_4SSIxg0g2_PnkoGH2I-4" target="W_4SSIxg0g2_PnkoGH2I-5">
          <mxGeometry relative="1" as="geometry" />
        </mxCell>
        <mxCell id="W_4SSIxg0g2_PnkoGH2I-4" value="Solicitar al usuario el valor de la propina (10,15 o 20)" style="shape=parallelogram;perimeter=parallelogramPerimeter;whiteSpace=wrap;html=1;fixedSize=1;" vertex="1" parent="1">
          <mxGeometry x="304.75" y="420" width="208.5" height="60" as="geometry" />
        </mxCell>
        <mxCell id="W_4SSIxg0g2_PnkoGH2I-5" value="El valor ingresado de la propina es 10, 15 o 20" style="rhombus;whiteSpace=wrap;html=1;" vertex="1" parent="1">
          <mxGeometry x="339" y="510" width="150" height="150" as="geometry" />
        </mxCell>
        <mxCell id="W_4SSIxg0g2_PnkoGH2I-6" value="El valor ingresado es un valor correcto" style="rhombus;whiteSpace=wrap;html=1;" vertex="1" parent="1">
          <mxGeometry x="334" y="250" width="150" height="150" as="geometry" />
        </mxCell>
        <mxCell id="W_4SSIxg0g2_PnkoGH2I-7" value="Ingresa un valor correcto" style="shape=parallelogram;perimeter=parallelogramPerimeter;whiteSpace=wrap;html=1;fixedSize=1;" vertex="1" parent="1">
          <mxGeometry x="530" y="280" width="169" height="60" as="geometry" />
        </mxCell>
        <mxCell id="W_4SSIxg0g2_PnkoGH2I-8" value="Ingresa un valor correcto" style="shape=parallelogram;perimeter=parallelogramPerimeter;whiteSpace=wrap;html=1;fixedSize=1;" vertex="1" parent="1">
          <mxGeometry x="530" y="555" width="169" height="60" as="geometry" />
        </mxCell>
        <mxCell id="W_4SSIxg0g2_PnkoGH2I-10" value="calcular valor de la propina" style="rounded=1;whiteSpace=wrap;html=1;" vertex="1" parent="1">
          <mxGeometry x="354" y="680" width="120" height="60" as="geometry" />
        </mxCell>
        <mxCell id="W_4SSIxg0g2_PnkoGH2I-11" value="sumar el total de la cuenta con la propina&amp;nbsp;" style="rounded=1;whiteSpace=wrap;html=1;" vertex="1" parent="1">
          <mxGeometry x="354" y="770" width="120" height="60" as="geometry" />
        </mxCell>
        <mxCell id="W_4SSIxg0g2_PnkoGH2I-12" value="Dar el valor a pagar" style="shape=parallelogram;perimeter=parallelogramPerimeter;whiteSpace=wrap;html=1;fixedSize=1;" vertex="1" parent="1">
          <mxGeometry x="339" y="870" width="169" height="60" as="geometry" />
        </mxCell>
        <mxCell id="W_4SSIxg0g2_PnkoGH2I-15" value="" style="endArrow=classic;html=1;rounded=0;exitX=0.5;exitY=1;exitDx=0;exitDy=0;entryX=0.45;entryY=-0.017;entryDx=0;entryDy=0;entryPerimeter=0;" edge="1" parent="1" source="W_4SSIxg0g2_PnkoGH2I-11" target="W_4SSIxg0g2_PnkoGH2I-12">
          <mxGeometry width="50" height="50" relative="1" as="geometry">
            <mxPoint x="413" y="840" as="sourcePoint" />
            <mxPoint x="413" y="870" as="targetPoint" />
          </mxGeometry>
        </mxCell>
        <mxCell id="W_4SSIxg0g2_PnkoGH2I-16" value="" style="endArrow=classic;html=1;rounded=0;" edge="1" parent="1">
          <mxGeometry width="50" height="50" relative="1" as="geometry">
            <mxPoint x="410" y="740" as="sourcePoint" />
            <mxPoint x="410" y="770" as="targetPoint" />
          </mxGeometry>
        </mxCell>
        <mxCell id="W_4SSIxg0g2_PnkoGH2I-17" value="" style="endArrow=classic;html=1;rounded=0;entryX=0.5;entryY=0;entryDx=0;entryDy=0;" edge="1" parent="1" target="W_4SSIxg0g2_PnkoGH2I-10">
          <mxGeometry width="50" height="50" relative="1" as="geometry">
            <mxPoint x="414" y="660" as="sourcePoint" />
            <mxPoint x="417" y="690" as="targetPoint" />
          </mxGeometry>
        </mxCell>
        <mxCell id="W_4SSIxg0g2_PnkoGH2I-19" value="" style="endArrow=classic;html=1;rounded=0;exitX=0.5;exitY=1;exitDx=0;exitDy=0;entryX=0.5;entryY=0;entryDx=0;entryDy=0;" edge="1" parent="1" source="W_4SSIxg0g2_PnkoGH2I-6" target="W_4SSIxg0g2_PnkoGH2I-4">
          <mxGeometry width="50" height="50" relative="1" as="geometry">
            <mxPoint x="414" y="390" as="sourcePoint" />
            <mxPoint x="417" y="420" as="targetPoint" />
          </mxGeometry>
        </mxCell>
        <mxCell id="W_4SSIxg0g2_PnkoGH2I-29" value="&lt;span style=&quot;color: rgba(0, 0, 0, 0); font-family: monospace; font-size: 0px; text-align: start; background-color: rgb(27, 29, 30);&quot;&gt;%3CmxGraphModel%3E%3Croot%3E%3CmxCell%20id%3D%220%22%2F%3E%3CmxCell%20id%3D%221%22%20parent%3D%220%22%2F%3E%3CmxCell%20id%3D%222%22%20value%3D%22%22%20style%3D%22endArrow%3Dclassic%3Bhtml%3D1%3Brounded%3D0%3B%22%20edge%3D%221%22%20parent%3D%221%22%3E%3CmxGeometry%20width%3D%2250%22%20height%3D%2250%22%20relative%3D%221%22%20as%3D%22geometry%22%3E%3CmxPoint%20x%3D%22508%22%20y%3D%22310%22%20as%3D%22sourcePoint%22%2F%3E%3CmxPoint%20x%3D%22540%22%20y%3D%22310%22%20as%3D%22targetPoint%22%2F%3E%3C%2FmxGeometry%3E%3C%2FmxCell%3E%3C%2Froot%3E%3C%2FmxGraphModel%3E&lt;/span&gt;" style="endArrow=classic;html=1;rounded=0;exitX=0.953;exitY=0.453;exitDx=0;exitDy=0;exitPerimeter=0;entryX=0.036;entryY=0.633;entryDx=0;entryDy=0;entryPerimeter=0;" edge="1" parent="1" source="W_4SSIxg0g2_PnkoGH2I-6" target="W_4SSIxg0g2_PnkoGH2I-7">
          <mxGeometry width="50" height="50" relative="1" as="geometry">
            <mxPoint x="508" y="310" as="sourcePoint" />
            <mxPoint x="508" y="370" as="targetPoint" />
          </mxGeometry>
        </mxCell>
        <mxCell id="W_4SSIxg0g2_PnkoGH2I-31" value="&lt;span style=&quot;color: rgba(0, 0, 0, 0); font-family: monospace; font-size: 0px; text-align: start; background-color: rgb(27, 29, 30);&quot;&gt;%3CmxGraphModel%3E%3Croot%3E%3CmxCell%20id%3D%220%22%2F%3E%3CmxCell%20id%3D%221%22%20parent%3D%220%22%2F%3E%3CmxCell%20id%3D%222%22%20value%3D%22%22%20style%3D%22endArrow%3Dclassic%3Bhtml%3D1%3Brounded%3D0%3B%22%20edge%3D%221%22%20parent%3D%221%22%3E%3CmxGeometry%20width%3D%2250%22%20height%3D%2250%22%20relative%3D%221%22%20as%3D%22geometry%22%3E%3CmxPoint%20x%3D%22508%22%20y%3D%22310%22%20as%3D%22sourcePoint%22%2F%3E%3CmxPoint%20x%3D%22540%22%20y%3D%22310%22%20as%3D%22targetPoint%22%2F%3E%3C%2FmxGeometry%3E%3C%2FmxCell%3E%3C%2Froot%3E%3C%2FmxGraphModel%3E&lt;/span&gt;" style="endArrow=classic;html=1;rounded=0;entryX=0;entryY=0.5;entryDx=0;entryDy=0;" edge="1" parent="1" target="W_4SSIxg0g2_PnkoGH2I-8">
          <mxGeometry width="50" height="50" relative="1" as="geometry">
            <mxPoint x="489" y="584" as="sourcePoint" />
            <mxPoint x="521" y="584" as="targetPoint" />
          </mxGeometry>
        </mxCell>
        <mxCell id="W_4SSIxg0g2_PnkoGH2I-32" value="NO" style="text;html=1;align=center;verticalAlign=middle;resizable=0;points=[];autosize=1;strokeColor=none;fillColor=none;" vertex="1" parent="1">
          <mxGeometry x="480" y="268" width="40" height="30" as="geometry" />
        </mxCell>
        <mxCell id="W_4SSIxg0g2_PnkoGH2I-33" value="NO" style="text;html=1;align=center;verticalAlign=middle;resizable=0;points=[];autosize=1;strokeColor=none;fillColor=none;" vertex="1" parent="1">
          <mxGeometry x="489" y="540" width="40" height="30" as="geometry" />
        </mxCell>
        <mxCell id="W_4SSIxg0g2_PnkoGH2I-34" value="SI" style="text;html=1;align=center;verticalAlign=middle;resizable=0;points=[];autosize=1;strokeColor=none;fillColor=none;" vertex="1" parent="1">
          <mxGeometry x="414" y="390" width="30" height="30" as="geometry" />
        </mxCell>
        <mxCell id="W_4SSIxg0g2_PnkoGH2I-35" value="SI" style="text;html=1;align=center;verticalAlign=middle;resizable=0;points=[];autosize=1;strokeColor=none;fillColor=none;" vertex="1" parent="1">
          <mxGeometry x="420" y="650" width="30" height="30" as="geometry" />
        </mxCell>
      </root>
    </mxGraphModel>
  </diagram>
</mxfile>
